<svg width="16" height="16" viewBox="0 0 16 16" fill="none" xmlns="http://www.w3.org/2000/svg">
<path d="M3.75221 6.16409C3.08362 6.16409 2.74879 6.97195 3.22155 7.44442L4.98131 9.2031C6.4044 10.6253 7.11595 11.3364 8.00015 11.3364C8.88435 11.3364 9.59589 10.6253 11.019 9.20309L12.7787 7.44442C13.2515 6.97195 12.9167 6.16409 12.2481 6.16409C12.049 6.16409 11.8582 6.24311 11.7174 6.38376L9.95768 8.14243C9.21613 8.88353 8.76448 9.3304 8.39705 9.61056C8.22747 9.73987 8.12388 9.79497 8.06705 9.81865C8.02411 9.83655 8.00894 9.83647 8.00115 9.83643L8.00015 9.83643L7.99914 9.83643C7.99135 9.83647 7.97619 9.83655 7.93325 9.81865C7.87642 9.79497 7.77282 9.73987 7.60324 9.61056C7.23582 9.3304 6.78417 8.88353 6.04262 8.14243L4.28286 6.38376C4.14213 6.24311 3.95124 6.16409 3.75221 6.16409Z" fill="currentColor"/>
</svg>
