<svg width="16" height="16" viewBox="0 0 16 16" fill="none" xmlns="http://www.w3.org/2000/svg">
<path d="M6.16406 12.248C6.16406 12.9166 6.97192 13.2515 7.44439 12.7787L9.20307 11.0189C10.6253 9.59584 11.3364 8.88429 11.3364 8.00009C11.3364 7.11589 10.6253 6.40435 9.20306 4.98124L7.44439 3.22154C6.97192 2.74874 6.16406 3.08354 6.16406 3.75214C6.16406 3.95124 6.24308 4.14204 6.38373 4.28284L8.1424 6.04256C8.8835 6.78411 9.33037 7.23576 9.61053 7.60319C9.73984 7.77277 9.79494 7.87636 9.81862 7.93319C9.83652 7.97613 9.83644 7.9913 9.8364 7.99909L9.8364 8.00009L9.8364 8.0011C9.83644 8.00889 9.83652 8.02405 9.81862 8.06699C9.79494 8.12382 9.73984 8.22742 9.61053 8.397C9.33037 8.76442 8.8835 9.21607 8.1424 9.95762L6.38373 11.7174C6.24308 11.8581 6.16406 12.049 6.16406 12.248Z" fill="black"/>
</svg>
