<svg width="16" height="16" viewBox="0 0 16 16" fill="none" xmlns="http://www.w3.org/2000/svg">
<path d="M9.83594 3.75197C9.83594 3.08338 9.02808 2.74855 8.55561 3.22131L6.79693 4.98107C5.37473 6.40416 4.66363 7.11571 4.66363 7.99991C4.66363 8.88411 5.37473 9.59565 6.79694 11.0188L8.55561 12.7785C9.02808 13.2513 9.83594 12.9165 9.83594 12.2479C9.83594 12.0488 9.75692 11.858 9.61627 11.7172L7.8576 9.95744C7.1165 9.21589 6.66963 8.76424 6.38947 8.39681C6.26016 8.22723 6.20506 8.12364 6.18138 8.06681C6.16348 8.02387 6.16356 8.0087 6.1636 8.00091L6.1636 7.99991L6.1636 7.9989C6.16356 7.99111 6.16348 7.97595 6.18138 7.93301C6.20506 7.87618 6.26016 7.77258 6.38947 7.603C6.66963 7.23558 7.1165 6.78393 7.8576 6.04238L9.61627 4.28262C9.75692 4.14189 9.83594 3.951 9.83594 3.75197Z" fill="black"/>
</svg>
