<svg width="16" height="16" viewBox="0 0 16 16" fill="none" xmlns="http://www.w3.org/2000/svg">
<path d="M12.2479 9.83591C12.9164 9.83591 13.2513 9.02805 12.7785 8.55558L11.0188 6.79691C9.59566 5.37469 8.88411 4.66358 7.99992 4.66358C7.11572 4.66358 6.40417 5.37469 4.98107 6.79691L3.22133 8.55558C2.74856 9.02805 3.08339 9.83591 3.75198 9.83591C3.95102 9.83591 4.1419 9.75689 4.28264 9.61624L6.04239 7.85757C6.78394 7.11647 7.23559 6.66961 7.60301 6.38944C7.77259 6.26014 7.87619 6.20504 7.93302 6.18135C7.97596 6.16346 7.99112 6.16353 7.99891 6.16357L7.99992 6.16358L8.00092 6.16357C8.00871 6.16353 8.02387 6.16346 8.06681 6.18135C8.12364 6.20504 8.22724 6.26014 8.39682 6.38944C8.76424 6.6696 9.21589 7.11647 9.95744 7.85757L11.7172 9.61624C11.8579 9.75689 12.0488 9.83591 12.2479 9.83591Z" fill="currentColor"/>
</svg>
