<svg width="24" height="24" viewBox="0 0 24 24" fill="none" xmlns="http://www.w3.org/2000/svg">
<path fill-rule="evenodd" clip-rule="evenodd" d="M14.9762 12.6607C14.9204 13.4455 14.8925 13.8378 14.3647 14.3658C13.837 14.8937 13.4448 14.9216 12.6603 14.9775C12.4508 14.9924 12.2298 15.0012 12 15.0012C11.7701 15.0012 11.5491 14.9924 11.3396 14.9775C10.5552 14.9216 10.1629 14.8937 9.63517 14.3658C9.1074 13.8378 9.0795 13.4455 9.0237 12.6607C9.00877 12.4511 9 12.23 9 12.0001C9 11.7702 9.00877 11.5491 9.0237 11.3395C9.0795 10.5547 9.1074 10.1624 9.63517 9.63442C10.1629 9.1065 10.5552 9.07852 11.3396 9.02272C11.5491 9.0078 11.7701 8.99902 12 8.99902C12.2298 8.99902 12.4508 9.0078 12.6603 9.02272C13.4448 9.07852 13.837 9.1065 14.3647 9.63442C14.8925 10.1624 14.9204 10.5547 14.9762 11.3395C14.9911 11.5491 15 11.7702 15 12.0001C15 12.23 14.9911 12.4511 14.9762 12.6607ZM12.5272 13.1065C12.3586 13.1185 12.182 13.1255 12 13.1255C11.8179 13.1255 11.6413 13.1185 11.4727 13.1065C11.2642 13.0917 11.1416 13.0825 11.0408 13.0704C11.0182 13.0676 10.9997 13.0651 10.985 13.0628C10.978 13.0563 10.97 13.0485 10.961 13.0394C10.952 13.0304 10.9442 13.0224 10.9376 13.0154C10.9354 13.0007 10.9328 12.9823 10.9301 12.9596C10.918 12.8587 10.9088 12.7361 10.894 12.5275C10.882 12.3589 10.875 12.1822 10.875 12.0001C10.875 11.818 10.882 11.6413 10.894 11.4726C10.9088 11.264 10.918 11.1415 10.9301 11.0406C10.9328 11.0179 10.9354 10.9995 10.9376 10.9848C10.9442 10.9778 10.952 10.9698 10.961 10.9607C10.97 10.9517 10.978 10.9439 10.985 10.9374C10.9997 10.9351 11.0182 10.9326 11.0408 10.9298C11.1416 10.9177 11.2642 10.9085 11.4727 10.8937C11.6413 10.8817 11.8179 10.8747 12 10.8747C12.182 10.8747 12.3586 10.8817 12.5272 10.8937C12.7357 10.9085 12.8583 10.9177 12.9591 10.9298C12.9818 10.9326 13.0002 10.9351 13.0149 10.9374C13.0219 10.9439 13.0299 10.9517 13.039 10.9607C13.048 10.9698 13.0558 10.9778 13.0623 10.9848C13.0646 10.9995 13.0671 11.0179 13.0699 11.0406C13.082 11.1415 13.0912 11.264 13.1059 11.4726C13.118 11.6413 13.125 11.818 13.125 12.0001C13.125 12.1822 13.118 12.3589 13.1059 12.5275C13.0912 12.7361 13.082 12.8587 13.0699 12.9596C13.0671 12.9823 13.0646 13.0007 13.0623 13.0154C13.0558 13.0224 13.048 13.0304 13.039 13.0394C13.0299 13.0485 13.0219 13.0563 13.0149 13.0628C13.0002 13.0651 12.9818 13.0676 12.9591 13.0704C12.8583 13.0825 12.7357 13.0917 12.5272 13.1065Z" fill="currentColor"/>
<path fill-rule="evenodd" clip-rule="evenodd" d="M12.7136 21C13.0581 21.0001 13.4 21.0001 13.6884 20.9627C14.0205 20.9197 14.3807 20.8174 14.7053 20.5435C15.0253 20.2735 15.188 19.9437 15.2874 19.6248C15.3722 19.3526 15.4283 19.0251 15.484 18.6997C15.68 18.5974 15.871 18.4869 16.0564 18.3685C16.3665 18.4833 16.6788 18.5987 16.9574 18.6614C17.2832 18.7348 17.6501 18.7587 18.0437 18.6165C18.4432 18.4722 18.7118 18.2113 18.9152 17.9452C19.0917 17.7139 19.2626 17.4178 19.4348 17.1192L20.1491 15.8815C20.3215 15.583 20.4925 15.2869 20.6043 15.0184C20.7331 14.7091 20.8246 14.3459 20.7498 13.9277C20.6761 13.5156 20.4719 13.2097 20.2456 12.9641C20.0518 12.7539 19.7953 12.5408 19.5407 12.3292C19.5453 12.22 19.5477 12.1103 19.5477 12.0001C19.5477 11.8894 19.5453 11.7791 19.5406 11.6694C19.7943 11.4586 20.0496 11.2462 20.2427 11.0368C20.4691 10.7912 20.6732 10.4854 20.7469 10.0732C20.8217 9.65505 20.7302 9.29182 20.6015 8.9826C20.4896 8.71402 20.3186 8.41792 20.1463 8.1195L19.4321 6.88201C19.2599 6.58349 19.089 6.28729 18.9125 6.0561C18.7091 5.78993 18.4405 5.5291 18.041 5.38478C17.6474 5.24254 17.2805 5.2665 16.9548 5.3398C16.6769 5.40234 16.3656 5.51731 16.0564 5.6317C15.871 5.51332 15.68 5.40278 15.4841 5.30057C15.4284 4.97508 15.3722 4.64746 15.2874 4.37518C15.188 4.05631 15.0253 3.72646 14.7053 3.45654C14.3807 3.18265 14.0205 3.08027 13.6884 3.03724C13.4 2.99986 13.0581 2.99993 12.7136 3.00001H11.2861C10.9415 2.99993 10.5996 2.99986 10.3112 3.03724C9.97914 3.08027 9.61892 3.18265 9.29432 3.45654C8.9743 3.72646 8.81162 4.05631 8.71224 4.37518C8.62734 4.64749 8.57124 4.97515 8.51559 5.30067C8.31969 5.4028 8.12889 5.51325 7.94364 5.63154C7.63359 5.51684 7.32144 5.40144 7.04289 5.33875C6.71715 5.26543 6.35026 5.24146 5.95662 5.38369C5.55721 5.52802 5.28849 5.78885 5.0852 6.05503C4.90862 6.28623 4.73776 6.58243 4.56555 6.88096L3.85122 8.11867C3.67889 8.4171 3.50788 8.71327 3.39602 8.98185C3.26724 9.29107 3.17579 9.6543 3.25056 10.0725C3.32424 10.4846 3.52844 10.7905 3.75478 11.036C3.94847 11.2462 4.2047 11.4591 4.45919 11.6704C4.45449 11.7798 4.45211 11.8897 4.45211 12.0001C4.45211 12.1105 4.45448 12.2203 4.45918 12.3296C4.2052 12.5406 3.94961 12.7531 3.7563 12.9628C3.52998 13.2083 3.32581 13.5142 3.25213 13.9263C3.17737 14.3445 3.26881 14.7077 3.39759 15.0169C3.50946 15.2855 3.68044 15.5816 3.85277 15.88L4.56695 17.1175C4.73916 17.416 4.91001 17.7122 5.08659 17.9434C5.28988 18.2096 5.55858 18.4705 5.958 18.6148C6.35162 18.757 6.71849 18.733 7.04422 18.6598C7.32202 18.5972 7.63329 18.4823 7.94244 18.3679C8.12807 18.4865 8.31932 18.5972 8.51559 18.6996C8.57124 19.025 8.62742 19.3525 8.71224 19.6248C8.81162 19.9437 8.9743 20.2735 9.29432 20.5435C9.61892 20.8174 9.97914 20.9197 10.3112 20.9627C10.5996 21.0001 10.9415 21.0001 11.2861 21H12.7136ZM10.5521 4.89739C10.5364 4.89942 10.5232 4.90144 10.5122 4.90335C10.5092 4.91191 10.5059 4.92192 10.5023 4.93354C10.4588 5.07275 10.4222 5.27515 10.3553 5.66622C10.3466 5.7169 10.3379 5.76863 10.329 5.82135C10.2478 6.3061 9.93145 6.69433 9.52232 6.89341C9.27835 7.0121 9.04404 7.14786 8.82099 7.29916C8.44382 7.55497 7.94882 7.6353 7.48807 7.46309C7.43746 7.44418 7.38778 7.42572 7.33905 7.4077C6.96703 7.27018 6.77352 7.2007 6.63131 7.16869C6.61944 7.16602 6.6091 7.1639 6.60019 7.16222C6.59304 7.17081 6.5847 7.18123 6.57511 7.19378C6.48129 7.31662 6.37096 7.50412 6.16626 7.8588L5.49811 9.0165C5.29341 9.37125 5.18623 9.56055 5.1268 9.70327C5.12073 9.71782 5.11588 9.73027 5.11202 9.74077C5.11794 9.74767 5.12494 9.75555 5.13319 9.76447C5.232 9.87172 5.38891 10.0046 5.69396 10.2581C5.73399 10.2914 5.77489 10.3252 5.81664 10.3597C6.19525 10.6721 6.37341 11.1398 6.34139 11.5938C6.33193 11.7279 6.32711 11.8633 6.32711 12.0001C6.32711 12.1368 6.33192 12.2722 6.34137 12.4063C6.37339 12.8602 6.19526 13.3279 5.81671 13.6402C5.77546 13.6743 5.73504 13.7078 5.69547 13.7407C5.39044 13.9942 5.23355 14.1271 5.13475 14.2343C5.1265 14.2432 5.11951 14.2511 5.1136 14.258C5.11745 14.2685 5.1223 14.281 5.12837 14.2955C5.1878 14.4382 5.29497 14.6275 5.49967 14.9822L6.16767 16.1397C6.37236 16.4944 6.4827 16.6819 6.57651 16.8047C6.58609 16.8172 6.59444 16.8277 6.60159 16.8363C6.6105 16.8346 6.62083 16.8325 6.6327 16.8298C6.7749 16.7978 6.9684 16.7283 7.34039 16.5908C7.38836 16.5731 7.43726 16.5549 7.48705 16.5363C7.94785 16.3642 8.44292 16.4445 8.82009 16.7005C9.04344 16.852 9.27805 16.9879 9.52232 17.1068C9.93145 17.3059 10.2478 17.6941 10.3291 18.1789C10.3379 18.2315 10.3466 18.2832 10.3553 18.3337C10.4222 18.7249 10.4588 18.9272 10.5023 19.0664C10.5059 19.078 10.5092 19.0881 10.5122 19.0966C10.5232 19.0985 10.5364 19.1005 10.5521 19.1026C10.7053 19.1224 10.9229 19.1243 11.3322 19.1243H12.6674C13.0768 19.1243 13.2943 19.1224 13.4476 19.1026C13.4632 19.1005 13.4764 19.0985 13.4874 19.0966C13.4904 19.0881 13.4938 19.078 13.4974 19.0664C13.5407 18.9272 13.5773 18.7249 13.6443 18.3337C13.653 18.2832 13.6617 18.2316 13.6706 18.1789C13.7518 17.6942 14.0682 17.3059 14.4773 17.1069C14.7214 16.9882 14.9558 16.8523 15.179 16.7009C15.5562 16.4451 16.0512 16.3648 16.5119 16.537C16.5627 16.5559 16.6125 16.5744 16.6613 16.5925C17.0333 16.73 17.2268 16.7995 17.369 16.8315C17.3809 16.8342 17.3912 16.8363 17.4002 16.8379C17.4073 16.8294 17.4157 16.819 17.4252 16.8064C17.519 16.6836 17.6294 16.496 17.8341 16.1413L18.5022 14.9836C18.707 14.629 18.8141 14.4396 18.8735 14.2969C18.8796 14.2823 18.8845 14.2699 18.8883 14.2594C18.8825 14.2525 18.8754 14.2447 18.8672 14.2357C18.7684 14.1285 18.6115 13.9956 18.3064 13.742C18.2662 13.7086 18.2252 13.6747 18.1832 13.64C17.8046 13.3276 17.6264 12.8599 17.6585 12.406C17.6679 12.2721 17.6727 12.1367 17.6727 12.0001C17.6727 11.863 17.6678 11.7273 17.6583 11.593C17.6263 11.139 17.8043 10.6712 18.183 10.3588C18.224 10.3249 18.2642 10.2916 18.3035 10.2589C18.6086 10.0054 18.7655 9.87247 18.8643 9.76522C18.8726 9.7563 18.8795 9.74842 18.8855 9.74152C18.8816 9.73102 18.8768 9.71857 18.8707 9.70402C18.8112 9.56137 18.704 9.372 18.4994 9.01732L17.8313 7.85985C17.6267 7.50517 17.5163 7.31768 17.4225 7.19485C17.413 7.18231 17.4046 7.17188 17.3975 7.16329C17.3885 7.16497 17.3782 7.1671 17.3663 7.16977C17.2241 7.20177 17.0306 7.27123 16.6586 7.40874C16.6106 7.42648 16.5617 7.44467 16.5119 7.46329C16.0511 7.63545 15.5561 7.55512 15.179 7.29929C14.9558 7.1479 14.7214 7.01208 14.4773 6.89333C14.0682 6.69427 13.7518 6.30602 13.6706 5.82127C13.6617 5.76857 13.653 5.71687 13.6443 5.66622C13.5773 5.27515 13.5407 5.07275 13.4974 4.93354C13.4938 4.92192 13.4904 4.91191 13.4874 4.90335C13.4764 4.90144 13.4632 4.89942 13.4476 4.89739C13.2943 4.87753 13.0768 4.87571 12.6674 4.87571L11.3322 4.8757C10.9229 4.8757 10.7053 4.87753 10.5521 4.89739Z" fill="currentColor"/>
</svg>
