<svg width="24" height="24" viewBox="0 0 24 24" fill="none" xmlns="http://www.w3.org/2000/svg">
<g clip-path="url(#clip0_503_106)">
<path d="M17.5 10.5007C17.4998 10.7564 17.4022 11.012 17.2071 11.2071L15.6117 12.8026C15.1666 13.2476 14.7204 13.6625 14.219 14.045C13.9116 14.2796 13.5137 14.5 13 14.5C12.4863 14.5 12.0884 14.2796 11.781 14.045C11.5083 13.837 11.2169 13.6313 10.9172 13.3314L10.7071 13.1213C10.3538 12.768 10.1584 12.5756 10.0059 12.4592L10 12.4548L9.99415 12.4592C10 12.4548 9.12539 13.2439 8.72117 13.6725C8.54985 13.8541 8.37958 14.0346 8.20711 14.2071C8.01209 14.4021 7.75658 14.4998 7.50098 14.5C7.24473 14.5002 6.9884 14.4026 6.79289 14.2071C6.59763 14.0118 6.5 13.7559 6.5 13.5C6.5 13.2441 6.59763 12.9882 6.79289 12.7929C7.43685 12.1489 8.78099 10.8692 8.78099 10.8692C9.08838 10.6347 9.48634 10.4142 10 10.4142C10.5137 10.4142 10.9116 10.6347 11.219 10.8692C11.4917 11.0772 11.7831 11.3687 12.0829 11.6686C12.3701 11.9559 12.6713 12.2087 12.9941 12.455L13 12.4594L13.0059 12.455C13.4269 12.1338 13.8002 11.7856 14.1744 11.4114L15.7929 9.79289C15.9882 9.59763 16.2441 9.5 16.5 9.5C16.7559 9.5 17.0118 9.59763 17.2071 9.79289C17.4025 9.98833 17.5002 10.2445 17.5 10.5007Z" fill="currentColor"/>
<path fill-rule="evenodd" clip-rule="evenodd" d="M4.68597 4.68743C3.3731 6.00031 3.27575 7.3083 3.08105 9.92429C3.03058 10.6024 3 11.3019 3 12.0015C3 12.701 3.03058 13.4005 3.08105 14.0786C3.27575 16.6946 3.3731 18.0026 4.68597 19.3155C5.99884 20.6284 7.30684 20.7257 9.92282 20.9204C10.601 20.9709 11.3005 21.0015 12 21.0015C12.6995 21.0015 13.399 20.9709 14.0772 20.9204C16.6932 20.7257 18.0012 20.6284 19.314 19.3155C20.6269 18.0026 20.7243 16.6946 20.9189 14.0786C20.9694 13.4005 21 12.701 21 12.0015C21 11.3019 20.9694 10.6024 20.9189 9.92429C20.7243 7.3083 20.6269 6.00031 19.314 4.68743C18.0012 3.37456 16.6932 3.27721 14.0772 3.08252C13.399 3.03205 12.6995 3.00146 12 3.00146C11.3005 3.00146 10.601 3.03205 9.92282 3.08252C7.30684 3.27721 5.99884 3.37456 4.68597 4.68743ZM12 5.00146C11.3578 5.00146 10.7084 5.02958 10.0713 5.077C7.3209 5.2817 6.80638 5.39545 6.10018 6.10165C5.39398 6.80785 5.28023 7.32237 5.07554 10.0727C5.02812 10.7099 5 11.3593 5 12.0015C5 12.6437 5.02812 13.293 5.07554 13.9302C5.28023 16.6806 5.39398 17.1951 6.10018 17.9013C6.80638 18.6075 7.3209 18.7212 10.0713 18.9259C10.7084 18.9733 11.3578 19.0015 12 19.0015C12.6422 19.0015 13.2916 18.9733 13.9287 18.9259C16.6791 18.7212 17.1936 18.6075 17.8998 17.9013C18.606 17.1951 18.7198 16.6806 18.9245 13.9302C18.9719 13.293 19 12.6437 19 12.0015C19 11.3593 18.9719 10.7099 18.9245 10.0727C18.7198 7.32237 18.606 6.80785 17.8998 6.10165C17.1936 5.39545 16.6791 5.2817 13.9287 5.077C13.2916 5.02958 12.6422 5.00146 12 5.00146Z" fill="currentColor"/>
</g>
<defs>
<clipPath id="clip0_503_106">
<rect width="24" height="24" fill="white"/>
</clipPath>
</defs>
</svg>
