<svg width="24" height="24" viewBox="0 0 24 24" fill="none" xmlns="http://www.w3.org/2000/svg">
<g clip-path="url(#clip0_503_100)">
<path fill-rule="evenodd" clip-rule="evenodd" d="M12.0001 21C12.3438 21 12.6956 20.9898 13.0504 20.9715C15.0249 20.8697 16.0121 20.8188 17.0871 20.1688C17.7626 19.7604 18.5332 18.949 18.9063 18.2533C19.5001 17.1463 19.5001 15.9309 19.5001 13.5C20.7537 13.3209 21.3805 13.2314 21.6763 12.8729C21.8395 12.6753 21.9373 12.4219 21.9495 12.1659C21.9714 11.7017 21.5721 11.2195 20.7734 10.255C19.9554 9.26729 18.9868 8.11971 18.0001 7C17.6632 6.61773 17.3381 6.23871 17.0223 5.8704C15.2116 3.75911 13.703 2 12.0001 2C10.2971 2 8.7885 3.75911 6.97785 5.8704C6.66199 6.23871 6.33694 6.61773 6.00006 7C5.01331 8.11971 4.04468 9.26729 3.2267 10.255C2.42803 11.2195 2.02869 11.7017 2.05066 12.1659C2.06278 12.4219 2.16065 12.6753 2.32378 12.8729C2.61957 13.2314 3.2464 13.3209 4.50004 13.5C4.50004 15.9308 4.50006 17.1463 5.09377 18.2533C5.46689 18.949 6.23749 19.7604 6.91304 20.1688C7.98801 20.8188 8.97525 20.8697 10.9497 20.9715C11.3045 20.9898 11.6563 21 12.0001 21ZM13.5141 4.97733C12.6162 4.11493 12.1772 4 12.0001 4C11.823 4 11.3839 4.11493 10.486 4.97733C9.87903 5.56029 9.28187 6.25685 8.57105 7.08598C8.24261 7.46908 7.8897 7.88073 7.50056 8.32232C6.53525 9.4177 5.58417 10.5442 4.77658 11.5192L4.7829 11.5201C5.60161 11.6371 6.01097 11.6955 6.25552 11.9775C6.25551 11.9775 6.25552 11.9775 6.25552 11.9775C6.50006 12.2595 6.50006 12.673 6.50006 13.5C6.50006 16.1217 6.55303 16.7426 6.85629 17.308C7.05992 17.6877 7.57918 18.2344 7.94785 18.4573C8.51527 18.8004 8.96212 18.8663 11.0527 18.9742C11.3782 18.991 11.6954 19 12.0001 19C12.3048 19 12.6219 18.991 12.9474 18.9742C15.038 18.8663 15.4849 18.8004 16.0523 18.4573C16.4209 18.2344 16.9402 17.6877 17.1438 17.308C17.4471 16.7426 17.5001 16.1217 17.5001 13.5C17.5001 12.673 17.5001 12.2595 17.7446 11.9775C17.7446 11.9775 17.7446 11.9775 17.7446 11.9775C17.9892 11.6955 18.3985 11.6371 19.2172 11.5201L19.2235 11.5192C18.416 10.5442 17.4649 9.4177 16.4996 8.32232C16.1105 7.88079 15.7578 7.4694 15.4294 7.08634C14.7186 6.2572 14.1211 5.56029 13.5141 4.97733Z" fill="currentColor"/>
</g>
<defs>
<clipPath id="clip0_503_100">
<rect width="24" height="24" fill="white"/>
</clipPath>
</defs>
</svg>
