<svg width="24" height="24" viewBox="0 0 24 24" fill="none" xmlns="http://www.w3.org/2000/svg">
<g clip-path="url(#clip0_503_103)">
<path fill-rule="evenodd" clip-rule="evenodd" d="M14.0001 4C14.0001 5.10457 13.1046 6 12.0001 6C10.8955 6 10.0001 5.10457 10.0001 4C10.0001 2.89543 10.8955 2 12.0001 2C13.1046 2 14.0001 2.89543 14.0001 4ZM8.50006 11.5C8.50006 12.3122 8.5402 13.004 8.59616 13.5737C8.69541 14.5841 9.00006 15.6086 9.00006 16.624V21C9.00006 21.5523 9.44778 22 10.0001 22C10.5523 22 11.0001 21.5523 11.0001 21V15.9523C11.3107 15.9816 11.6465 16 12.0001 16C12.3537 16 12.6894 15.9816 13.0001 15.9523V21C13.0001 21.5523 13.4478 22 14.0001 22C14.5523 22 15.0001 21.5523 15.0001 21V16.6238C15.0001 15.6086 15.3047 14.5841 15.404 13.5737C15.4599 13.004 15.5001 12.3123 15.5001 11.5C15.5001 10.688 15.4599 9.99633 15.404 9.42667C15.3788 9.16996 15.3575 8.95321 15.325 8.76118C15.2791 8.49054 15.4029 8.19802 15.6543 8.08776C16.7888 7.59011 17.8225 6.98087 18.539 6.52251C18.8603 6.3169 19.1216 6.13925 19.3039 6.01199C19.3951 5.94831 19.4667 5.89711 19.5164 5.86119C19.5413 5.84323 19.5606 5.82907 19.5743 5.81907L19.5904 5.80722L19.5951 5.80371L19.5966 5.80257L19.5975 5.80192C20.0403 5.47191 20.1319 4.84532 19.8019 4.40248C19.4719 3.95967 18.8455 3.86816 18.4027 4.19806L18.4009 4.19939L18.3905 4.207L18.3447 4.24033C18.3033 4.27026 18.2407 4.31509 18.159 4.37211C17.9955 4.48622 17.7568 4.64865 17.4611 4.8378C16.7942 5.26451 15.8563 5.81519 14.8509 6.2562C13.8278 6.70497 12.8237 7 12.0001 7C11.1382 7 10.082 6.67729 9.01759 6.19767C7.97283 5.72693 7.0132 5.14824 6.3708 4.72914C6.1251 4.56885 5.92868 4.43379 5.79503 4.3398C5.72824 4.29283 5.67725 4.25621 5.64376 4.23192L5.60688 4.20501L5.5987 4.19898L5.59751 4.1981C5.15467 3.86819 4.52819 3.95966 4.19821 4.40248C3.86821 4.84532 3.95969 5.47185 4.40254 5.80185L4.40469 5.80345L4.40866 5.80639L4.42199 5.81623L4.46964 5.851C4.51052 5.88065 4.56939 5.92291 4.64454 5.97576C4.79476 6.0814 5.01051 6.22968 5.278 6.40419C5.9684 6.8546 7.02294 7.49257 8.19598 8.02112C8.52851 8.17095 8.69904 8.56186 8.65083 8.92339C8.63075 9.0739 8.61447 9.23972 8.59611 9.42675C8.54017 9.9964 8.50006 10.688 8.50006 11.5Z" fill="currentColor"/>
</g>
<defs>
<clipPath id="clip0_503_103">
<rect width="24" height="24" fill="white"/>
</clipPath>
</defs>
</svg>
