<svg width="24" height="24" viewBox="0 0 24 24" fill="none" xmlns="http://www.w3.org/2000/svg">
<g clip-path="url(#clip0_503_109)">
<path d="M11.75 9C11.75 8.0335 10.9665 7.25 10 7.25C9.0335 7.25 8.25 8.0335 8.25 9C8.25 9.9665 9.0335 10.75 10 10.75C10.9665 10.75 11.75 9.9665 11.75 9Z" fill="currentColor"/>
<path fill-rule="evenodd" clip-rule="evenodd" d="M3.08105 9.92429C3.27575 7.3083 3.3731 6.00031 4.68597 4.68743C5.99884 3.37456 7.30684 3.27721 9.92282 3.08252C10.601 3.03205 11.3005 3.00146 12 3.00146C12.6995 3.00146 13.399 3.03205 14.0772 3.08252C16.6932 3.27721 18.0012 3.37456 19.314 4.68743C20.6269 6.00031 20.7243 7.3083 20.9189 9.92429C20.9694 10.6024 21 11.3019 21 12.0015C21 12.701 20.9694 13.4005 20.9189 14.0786C20.7243 16.6946 20.6269 18.0026 19.314 19.3155C18.0012 20.6284 16.6932 20.7257 14.0772 20.9204C13.399 20.9709 12.6995 21.0015 12 21.0015C11.3005 21.0015 10.601 20.9709 9.92282 20.9204C7.30684 20.7257 5.99884 20.6284 4.68597 19.3155C3.3731 18.0026 3.27575 16.6946 3.08105 14.0786C3.03058 13.4005 3 12.701 3 12.0015C3 11.3019 3.03058 10.6024 3.08105 9.92429ZM10.0713 5.077C10.7084 5.02958 11.3578 5.00146 12 5.00146C12.6422 5.00146 13.2916 5.02958 13.9287 5.077C16.6791 5.2817 17.1936 5.39545 17.8998 6.10165C18.606 6.80785 18.7198 7.32237 18.9245 10.0727C18.9719 10.7099 19 11.3593 19 12.0015C19 12.6437 18.9719 13.293 18.9245 13.9302C18.9033 14.2144 18.8831 14.4747 18.8632 14.7138C18.3721 12.8818 18.0992 12.2356 17.5306 11.0061C17.0592 9.98676 16.3753 9 15.7966 9C15.218 9 14.5216 10.06 14.0627 11.0061C13.6038 11.9521 12.4182 14.2827 12.4182 14.2827C12.1755 14.7665 11.768 15.0005 11.3555 15C10.9177 14.9994 10.4743 14.7347 10.2159 14.2218C9.87452 13.5441 9.4744 13 9.00366 13C8.42572 13 8.04084 13.6696 7.27245 15.0064L7.2697 15.0112L5.93778 17.7298C5.37468 17.0955 5.26342 16.4547 5.07554 13.9302C5.02812 13.293 5 12.6437 5 12.0015C5 11.3593 5.02812 10.7099 5.07554 10.0727C5.28023 7.32237 5.39398 6.80785 6.10018 6.10165C6.80638 5.39545 7.3209 5.2817 10.0713 5.077Z" fill="currentColor"/>
</g>
<defs>
<clipPath id="clip0_503_109">
<rect width="24" height="24" fill="white"/>
</clipPath>
</defs>
</svg>
