<svg width="29" height="28" viewBox="0 0 29 28" fill="none" xmlns="http://www.w3.org/2000/svg">
<g clip-path="url(#clip0_268_74707)">
<path d="M14.4999 7.2207C12.1365 7.2207 10.2206 9.1366 10.2206 11.5C10.2206 13.8634 12.1365 15.7793 14.4999 15.7793C16.8633 15.7793 18.7792 13.8634 18.7792 11.5C18.7792 9.1366 16.8633 7.2207 14.4999 7.2207Z" fill="currentColor"/>
<path fill-rule="evenodd" clip-rule="evenodd" d="M3.59906 11.4612C3.83702 8.26391 3.956 6.66525 5.56063 5.06063C7.16525 3.45601 8.76391 3.33703 11.9612 3.09906C12.7901 3.03738 13.645 3 14.5 3C15.355 3 16.2099 3.03738 17.0388 3.09906C20.2361 3.33702 21.8348 3.456 23.4394 5.06063C25.044 6.66525 25.163 8.26391 25.4009 11.4612C25.4626 12.2901 25.5 13.145 25.5 14C25.5 14.855 25.4626 15.7099 25.4009 16.5388C25.163 19.7361 25.044 21.3348 23.4394 22.9394C21.8348 24.544 20.2361 24.663 17.0388 24.9009C16.2099 24.9626 15.355 25 14.5 25C13.645 25 12.7901 24.9626 11.9612 24.9009C8.76391 24.663 7.16525 24.544 5.56063 22.9394C3.95601 21.3348 3.83703 19.7361 3.59906 16.5388C3.53738 15.7099 3.5 14.855 3.5 14C3.5 13.145 3.53738 12.2901 3.59906 11.4612ZM12.1097 5.09355C12.8975 5.03491 13.7023 5 14.5 5C15.2977 5 16.1025 5.03491 16.8903 5.09355C20.222 5.34151 21.0272 5.47689 22.0252 6.47484C23.0231 7.47279 23.1585 8.27798 23.4065 11.6097C23.4651 12.3975 23.5 13.2023 23.5 14C23.5 14.7977 23.4651 15.6025 23.4065 16.3903C23.2986 17.839 23.2121 18.8101 23.0667 19.5269C19.4214 18.6024 17.4966 18.1237 15.5383 18.0259C15.1924 18.0086 14.8462 18 14.5 18C14.1557 18 13.8115 18.0086 13.4675 18.0257C11.5091 18.1233 9.58249 18.6021 5.93335 19.5271C5.78792 18.8102 5.70138 17.8391 5.59355 16.3903C5.53491 15.6025 5.5 14.7977 5.5 14C5.5 13.2023 5.53491 12.3975 5.59355 11.6097C5.84151 8.27798 5.97689 7.47279 6.97484 6.47484C7.97279 5.47689 8.77798 5.34151 12.1097 5.09355Z" fill="currentColor"/>
</g>
<defs>
<clipPath id="clip0_268_74707">
<rect width="28" height="28" fill="white" transform="translate(0.5)"/>
</clipPath>
</defs>
</svg>
