<svg width="152" height="60" viewBox="0 0 152 60" fill="none" xmlns="http://www.w3.org/2000/svg">
<path fill-rule="evenodd" clip-rule="evenodd" d="M37.5314 40.3845C37.4049 40.5118 37.2793 40.638 37.1443 40.7634C36.6192 41.2744 36.068 41.7679 35.4816 42.2395C31.2459 45.6616 25.9774 47.4054 20.7703 47.3678C14.4867 47.3214 8.29061 44.6807 4.09864 39.2627C-2.08867 31.2749 -1.44101 18.9742 7.20547 12.7083C13.8741 7.86694 24.087 8.54765 28.9441 16.0184C30.6856 18.7038 31.3421 21.9247 30.8345 25.0405C30.3269 28.1573 28.4627 31.2801 25.2422 32.9453C23.1681 34.0171 20.8578 34.2744 18.5561 33.6785C16.2545 33.0835 13.7779 31.155 13.139 28.2597C12.894 27.1484 12.9815 25.6355 13.3928 24.3484C14.5743 21.2001 17.4358 18.9558 20.4289 20.3908C21.0327 20.7609 22.7393 22.2449 22.2405 24.8891C23.3607 22.9151 23.2206 20.8397 22.1879 19.1868C20.2276 16.0604 14.828 15.2747 11.1699 18.1779C6.04154 22.2484 5.45521 29.9781 9.43714 35.1266C14.6793 41.8895 24.6384 42.3112 31.237 36.9842C39.3584 30.4191 39.796 18.2969 33.1799 10.3554C25.286 0.880057 10.9948 0.428541 1.7095 8.3464C1.64603 8.39912 1.58525 8.45212 1.52415 8.5054C1.47574 8.54761 1.42713 8.59 1.37683 8.63255L1.12322 8.83992C1.16163 8.79288 1.26323 8.67238 1.35869 8.55915C1.43726 8.46597 1.51167 8.37772 1.54327 8.3394C1.91959 7.90803 2.30451 7.48977 2.70708 7.0864C3.28468 6.5159 3.87982 5.97433 4.50118 5.4642C5.13129 4.9532 5.77888 4.47454 6.45274 4.02829C7.12661 3.58291 7.81809 3.17081 8.53571 2.79456C9.24458 2.41831 9.97971 2.07792 10.7236 1.7743C11.4762 1.47155 12.2375 1.20555 13.0076 0.97893C13.7865 0.751431 14.5655 0.563289 15.3619 0.414539C16.1583 0.26579 16.9547 0.157302 17.7598 0.0881773C18.565 0.0190524 19.3701 -0.00891375 20.1752 0.00246123C20.9804 0.0147112 21.7853 0.0662968 22.5905 0.159047C23.3868 0.250921 24.1834 0.383049 24.9798 0.555423C25.7674 0.726923 26.5463 0.937838 27.3076 1.18721C28.0778 1.43746 28.8305 1.7253 29.5743 2.04993C30.3095 2.37455 31.0271 2.73683 31.7359 3.13321C32.4361 3.53046 33.1185 3.96271 33.7749 4.42733C34.4313 4.89283 35.0703 5.39067 35.6829 5.91917C36.1117 6.29367 36.5317 6.68303 36.9343 7.0864C37.5031 7.6569 38.0458 8.25544 38.5534 8.88019C39.0697 9.50406 39.5422 10.1542 39.9885 10.8262C40.4349 11.4982 40.8461 12.1929 41.2224 12.906C41.5987 13.62 41.9402 14.3515 42.2465 15.0988C42.544 15.846 42.8153 16.609 43.0428 17.3825C43.2703 18.1569 43.454 18.9418 43.6028 19.7345C43.7516 20.5273 43.8655 21.327 43.9355 22.1303C44.0055 22.9344 44.0318 23.7412 44.0143 24.5479C44.0056 25.3538 43.9529 26.1597 43.8566 26.9612C43.7691 27.7627 43.6379 28.5589 43.4629 29.3464C43.2966 30.1347 43.0866 30.9135 42.8328 31.6809C42.579 32.4482 42.2989 33.2016 41.9664 33.9401C41.6513 34.6672 41.2926 35.3786 40.8987 36.0707L40.6274 36.5126C39.7785 37.8312 38.7897 39.0834 37.6695 40.2462C37.623 40.2925 37.5772 40.3386 37.5314 40.3845ZM71.904 2.59803C69.4498 3.2842 67.0361 3.53939 64.6628 3.38379V33.5112C64.6628 40.0967 61.1606 41.0715 60.4388 41.0715C59.7199 41.0715 58.5679 40.8674 58.5679 39.6186C58.5679 38.9025 58.9902 38.481 59.4777 37.9946C60.1174 37.3562 60.8694 36.6059 60.9267 34.9308C61.0422 31.5361 57.693 31.0211 56.7113 31.0211C55.7297 31.0211 51.9157 31.9275 51.9157 36.0099C51.9157 41.7049 57.257 44.934 61.9343 44.934C67.6395 44.934 71.904 39.5089 71.904 34.6026V2.59803ZM97.3291 18.6283V16.381C95.4437 16.8189 93.567 17.0352 91.7047 17.0285V42.3509C91.7047 43.4409 92.5886 44.3246 93.6788 44.3246H95.355C96.4453 44.3246 97.3291 43.4409 97.3291 42.3509V21.1557C97.3291 21.1557 99.1307 19.8364 101.158 19.8364C103.184 19.8364 103.973 21.3049 103.973 23.7662V42.3509C103.973 43.4409 104.856 44.3246 105.947 44.3246H107.992C109.083 44.3246 109.966 43.4409 109.966 42.3509V23.7662C109.966 21.3898 109.274 16.7156 103.811 16.7156C99.8207 16.7156 97.3291 18.6283 97.3291 18.6283ZM120.843 18.6284V16.381C118.958 16.819 117.081 17.0352 115.219 17.0285V42.3509C115.219 43.441 116.102 44.3246 117.193 44.3246H118.869C119.959 44.3246 120.843 43.441 120.843 42.3509V21.1557C120.843 21.1557 122.645 19.8365 124.671 19.8365C126.698 19.8365 127.486 21.3049 127.486 23.7662V42.3509C127.486 43.441 128.37 44.3246 129.46 44.3246H131.506C132.597 44.3246 133.48 43.441 133.48 42.3509V23.7662C133.48 21.3898 132.787 16.7156 127.325 16.7156C123.335 16.7156 120.843 18.6284 120.843 18.6284ZM85.4755 16.2965C83.4775 17.1571 81.4795 17.5245 79.4816 17.2448V42.2664C79.4816 43.3564 80.3654 44.2401 81.4556 44.2401H83.5014C84.5917 44.2401 85.4755 43.3564 85.4755 42.2664V16.2965ZM82.0108 7.26511C84.2022 6.95392 86.1944 8.17818 86.4514 9.99768C86.7112 11.8172 85.1405 13.5472 82.9462 13.8584C80.7548 14.1696 78.7656 12.945 78.5057 11.1258C78.2487 9.30631 79.8194 7.5763 82.0108 7.26511Z" fill="url(#paint0_linear_5483_1874)"/>
<path d="M144.915 53.8631V53.6658C144.915 52.7283 145.178 51.9717 145.704 51.396C146.231 50.8163 146.926 50.5264 147.789 50.5264C148.649 50.5264 149.313 50.7977 149.782 51.3405C150.251 51.8792 150.485 52.6214 150.485 53.5671V54.0297H145.686V53.1477H149.208V53.049C149.208 52.6296 149.091 52.2698 148.856 51.9696C148.626 51.6653 148.275 51.5132 147.802 51.5132C147.271 51.5132 146.87 51.7106 146.599 52.1053C146.331 52.5001 146.198 53.0017 146.198 53.6102V53.8816C146.198 54.5066 146.342 55.0186 146.629 55.4174C146.917 55.8121 147.345 56.0095 147.913 56.0095C148.287 56.0095 148.606 55.9293 148.869 55.769C149.136 55.6045 149.35 55.403 149.51 55.1645L150.423 55.7443C150.234 56.0815 149.928 56.3775 149.504 56.6325C149.081 56.8833 148.554 57.0087 147.925 57.0087C146.963 57.0087 146.22 56.7209 145.698 56.1452C145.176 55.5654 144.915 54.8047 144.915 53.8631Z" fill="#6E2BA2"/>
<path d="M138.9 54.9548L140.14 54.961V55.0473C140.14 55.401 140.26 55.66 140.498 55.8245C140.741 55.9889 141.066 56.0712 141.473 56.0712C141.88 56.0712 142.195 55.9951 142.417 55.843C142.643 55.6867 142.756 55.4729 142.756 55.2015C142.756 54.9343 142.651 54.7328 142.441 54.5971C142.236 54.4614 141.812 54.3195 141.171 54.1715C140.475 54.0112 139.949 53.7871 139.591 53.4992C139.238 53.2114 139.061 52.8126 139.061 52.3027C139.061 51.7681 139.277 51.3385 139.709 51.0136C140.14 50.6888 140.724 50.5264 141.46 50.5264C142.192 50.5264 142.779 50.6929 143.219 51.026C143.659 51.3549 143.879 51.8154 143.879 52.4075V52.4815H142.645V52.389C142.645 52.0806 142.544 51.8504 142.343 51.6982C142.141 51.5461 141.843 51.47 141.448 51.47C141.062 51.47 140.776 51.5379 140.591 51.6736C140.406 51.8093 140.313 51.9964 140.313 52.2348C140.313 52.461 140.42 52.6399 140.634 52.7714C140.852 52.903 141.28 53.0428 141.917 53.1908C142.608 53.3512 143.132 53.5753 143.49 53.8631C143.848 54.151 144.027 54.5601 144.027 55.0905C144.027 55.6744 143.813 56.139 143.385 56.4844C142.957 56.8298 142.324 57.0025 141.485 57.0025C140.65 57.0025 140.011 56.8298 139.567 56.4844C139.127 56.1349 138.905 55.6518 138.9 55.035V54.9548Z" fill="#6E2BA2"/>
<path d="M136.322 56.8422V50.6929H137.611V56.8422H136.322ZM136.186 48.7069C136.186 48.4972 136.252 48.3225 136.383 48.1827C136.519 48.0388 136.714 47.9668 136.969 47.9668C137.22 47.9668 137.412 48.0388 137.543 48.1827C137.679 48.3225 137.747 48.4972 137.747 48.7069C137.747 48.9166 137.679 49.0934 137.543 49.2374C137.407 49.3772 137.214 49.4471 136.963 49.4471C136.712 49.4471 136.519 49.3772 136.383 49.2374C136.252 49.0934 136.186 48.9166 136.186 48.7069Z" fill="#6E2BA2"/>
<path d="M129.394 55.0535C129.394 54.4244 129.639 53.9351 130.128 53.5856C130.622 53.2361 131.259 53.0593 132.04 53.0551H133.441V52.6049C133.441 52.2513 133.348 51.9717 133.163 51.7661C132.982 51.5605 132.676 51.4577 132.244 51.4577C131.812 51.4577 131.496 51.544 131.294 51.7167C131.097 51.8894 130.998 52.1094 130.998 52.3767V52.463H129.746V52.352C129.746 51.8422 129.976 51.4104 130.437 51.0568C130.897 50.7032 131.516 50.5264 132.293 50.5264C133.067 50.5264 133.665 50.695 134.089 51.0321C134.512 51.3693 134.724 51.8977 134.724 52.6172V55.3927C134.724 55.6518 134.742 55.8985 134.779 56.1329C134.821 56.3672 134.88 56.5708 134.958 56.7435V56.8422H133.712C133.655 56.7394 133.603 56.6098 133.558 56.4536C133.517 56.2932 133.49 56.1329 133.478 55.9725C133.338 56.2274 133.099 56.4536 132.762 56.651C132.425 56.8483 131.997 56.947 131.479 56.947C130.87 56.947 130.371 56.7866 129.98 56.4659C129.589 56.1452 129.394 55.6744 129.394 55.0535ZM130.671 54.9733C130.671 55.3064 130.768 55.5654 130.961 55.7505C131.158 55.9314 131.454 56.0218 131.849 56.0218C132.26 56.0218 132.629 55.882 132.953 55.6024C133.278 55.3228 133.441 55.0124 133.441 54.6711V53.894H132.269C131.734 53.894 131.333 53.9885 131.066 54.1777C130.803 54.3668 130.671 54.632 130.671 54.9733Z" fill="#6E2BA2"/>
<path d="M122.608 56.8421V47.8618H125.52C126.445 47.8618 127.159 48.1044 127.661 48.5896C128.162 49.0748 128.413 49.7245 128.413 50.5386C128.413 51.3569 128.16 52.0168 127.655 52.5185C127.149 53.016 126.435 53.2648 125.514 53.2648H123.935V56.8421H122.608ZM123.935 52.2533H125.44C126.049 52.2533 126.474 52.095 126.717 51.7783C126.964 51.4576 127.087 51.0526 127.087 50.5633C127.087 50.0699 126.964 49.669 126.717 49.3606C126.474 49.0522 126.049 48.898 125.44 48.898H123.935V52.2533ZM127.352 56.8421L125.261 52.7282L126.581 52.5493L128.827 56.8421H127.352Z" fill="#6E2BA2"/>
<path d="M115.601 59.4636V50.693H116.804L116.834 51.4886H116.859C117.011 51.2296 117.254 51.0117 117.587 50.8349C117.92 50.6539 118.3 50.5635 118.728 50.5635C119.51 50.5635 120.131 50.8472 120.591 51.4146C121.056 51.978 121.288 52.7242 121.288 53.6535V53.8509C121.288 54.7802 121.056 55.5326 120.591 56.1083C120.131 56.6798 119.512 56.9656 118.734 56.9656C118.307 56.9656 117.937 56.8895 117.624 56.7374C117.316 56.5853 117.069 56.3838 116.884 56.133V59.4636H115.601ZM116.884 54.9611C116.999 55.2242 117.186 55.4566 117.445 55.658C117.704 55.8595 118.019 55.9603 118.389 55.9603C118.932 55.9603 119.331 55.765 119.586 55.3743C119.845 54.9837 119.974 54.4862 119.974 53.8817V53.6289C119.974 53.0203 119.845 52.5269 119.586 52.1486C119.331 51.7662 118.932 51.575 118.389 51.575C118.019 51.575 117.704 51.6757 117.445 51.8772C117.186 52.0746 116.999 52.3048 116.884 52.568V54.9611Z" fill="#6E2BA2"/>
<path d="M108.704 59.4636V50.693H109.907L109.937 51.4886H109.962C110.114 51.2296 110.357 51.0117 110.69 50.8349C111.023 50.6539 111.404 50.5635 111.831 50.5635C112.613 50.5635 113.234 50.8472 113.694 51.4146C114.159 51.978 114.391 52.7242 114.391 53.6535V53.8509C114.391 54.7802 114.159 55.5326 113.694 56.1083C113.234 56.6798 112.615 56.9656 111.837 56.9656C111.41 56.9656 111.04 56.8895 110.727 56.7374C110.419 56.5853 110.172 56.3838 109.987 56.133V59.4636H108.704ZM109.987 54.9611C110.102 55.2242 110.289 55.4566 110.548 55.658C110.807 55.8595 111.122 55.9603 111.492 55.9603C112.035 55.9603 112.434 55.765 112.689 55.3743C112.948 54.9837 113.077 54.4862 113.077 53.8817V53.6289C113.077 53.0203 112.948 52.5269 112.689 52.1486C112.434 51.7662 112.035 51.575 111.492 51.575C111.122 51.575 110.807 51.6757 110.548 51.8772C110.289 52.0746 110.102 52.3048 109.987 52.568V54.9611Z" fill="#6E2BA2"/>
<path d="M100.295 56.8422L103.435 47.8311H104.842L107.982 56.8422H106.612L104.336 50.0514C104.287 49.8993 104.246 49.7616 104.213 49.6382C104.18 49.5107 104.147 49.3812 104.114 49.2496H104.071C104.038 49.3812 104.003 49.5107 103.966 49.6382C103.933 49.7616 103.892 49.8993 103.842 50.0514L101.579 56.8422H100.295ZM101.776 54.5848L102.091 53.5732H106.137L106.458 54.5848H101.776Z" fill="#6E2BA2"/>
<path d="M96.5879 53.493V52.3828H99.9869V53.493H96.5879Z" fill="#6E2BA2"/>
<path d="M90.623 56.8421L92.9179 53.3944L93.1029 53.3697L94.7993 50.6929H96.0948L93.911 54.0296L93.7136 54.0481L91.9185 56.8421H90.623ZM90.7526 50.6929H92.1899L93.874 53.3635L93.9604 53.4067L96.2429 56.8421H94.8055L93.0227 54.0481L92.9425 54.0111L90.7526 50.6929Z" fill="#6E2BA2"/>
<path d="M84.6206 53.8631V53.6658C84.6206 52.7283 84.8838 51.9717 85.4102 51.396C85.9366 50.8163 86.6316 50.5264 87.4953 50.5264C88.3548 50.5264 89.019 50.7977 89.4878 51.3405C89.9566 51.8792 90.1911 52.6214 90.1911 53.5671V54.0297H85.3917V53.1477H88.9141V53.049C88.9141 52.6296 88.7969 52.2698 88.5625 51.9696C88.3322 51.6653 87.9806 51.5132 87.5076 51.5132C86.9771 51.5132 86.5761 51.7106 86.3047 52.1053C86.0374 52.5001 85.9037 53.0017 85.9037 53.6102V53.8816C85.9037 54.5066 86.0477 55.0186 86.3355 55.4174C86.6234 55.8121 87.0511 56.0095 87.6187 56.0095C87.9929 56.0095 88.3116 55.9293 88.5748 55.769C88.8421 55.6045 89.056 55.403 89.2164 55.1645L90.1294 55.7443C89.9402 56.0815 89.6338 56.3775 89.2102 56.6325C88.7866 56.8833 88.2602 57.0087 87.631 57.0087C86.6687 57.0087 85.9263 56.7209 85.404 56.1452C84.8818 55.5654 84.6206 54.8047 84.6206 53.8631Z" fill="#6E2BA2"/>
<defs>
<linearGradient id="paint0_linear_5483_1874" x1="0" y1="0" x2="30.8072" y2="76.773" gradientUnits="userSpaceOnUse">
<stop stop-color="#002981"/>
<stop offset="0.849348" stop-color="#7726AD"/>
</linearGradient>
</defs>
</svg>
